<svg width="52" height="52" viewBox="0 0 52 52" fill="none" xmlns="http://www.w3.org/2000/svg">
<path d="M41.1667 0H10.8333C7.96121 0.00344036 5.20771 1.14591 3.17681 3.17681C1.14591 5.20771 0.00344036 7.96121 0 10.8333L0 41.1667C0.00344036 44.0388 1.14591 46.7923 3.17681 48.8232C5.20771 50.8541 7.96121 51.9966 10.8333 52H41.1667C44.0388 51.9966 46.7923 50.8541 48.8232 48.8232C50.8541 46.7923 51.9966 44.0388 52 41.1667V10.8333C51.9966 7.96121 50.8541 5.20771 48.8232 3.17681C46.7923 1.14591 44.0388 0.00344036 41.1667 0ZM47.6667 41.1667C47.6667 42.8906 46.9818 44.5439 45.7629 45.7629C44.5439 46.9818 42.8906 47.6667 41.1667 47.6667H10.8333C9.10943 47.6667 7.45613 46.9818 6.23714 45.7629C5.01815 44.5439 4.33333 42.8906 4.33333 41.1667V10.8333C4.33333 9.10943 5.01815 7.45613 6.23714 6.23714C7.45613 5.01815 9.10943 4.33333 10.8333 4.33333H41.1667C42.8906 4.33333 44.5439 5.01815 45.7629 6.23714C46.9818 7.45613 47.6667 9.10943 47.6667 10.8333V41.1667Z" fill="#919191"/>
<path d="M15.1667 21.6641C16.4523 21.6641 17.709 21.2828 18.7779 20.5686C19.8468 19.8544 20.6799 18.8392 21.1719 17.6515C21.6639 16.4638 21.7926 15.1569 21.5418 13.896C21.291 12.6351 20.6719 11.4769 19.7629 10.5679C18.8538 9.65883 17.6957 9.03977 16.4348 8.78896C15.1739 8.53816 13.867 8.66688 12.6792 9.15885C11.4915 9.65082 10.4764 10.4839 9.76214 11.5529C9.04791 12.6218 8.66669 13.8785 8.66669 15.1641C8.66669 16.888 9.35151 18.5413 10.5705 19.7603C11.7895 20.9792 13.4428 21.6641 15.1667 21.6641ZM15.1667 12.9974C15.5952 12.9974 16.0141 13.1245 16.3704 13.3625C16.7267 13.6006 17.0044 13.939 17.1684 14.3349C17.3324 14.7308 17.3753 15.1665 17.2917 15.5868C17.2081 16.0071 17.0018 16.3931 16.6988 16.6961C16.3957 16.9991 16.0097 17.2055 15.5894 17.2891C15.1691 17.3727 14.7334 17.3298 14.3375 17.1658C13.9416 17.0018 13.6032 16.7241 13.3652 16.3678C13.1271 16.0115 13 15.5926 13 15.1641C13 14.5894 13.2283 14.0383 13.6346 13.632C14.041 13.2257 14.5921 12.9974 15.1667 12.9974Z" fill="#919191"/>
<path d="M36.1985 22.3017C35.9925 22.087 35.7427 21.9191 35.466 21.8095C35.1894 21.7 34.8923 21.6513 34.5952 21.6669C34.2985 21.6773 34.0072 21.7483 33.7389 21.8753C33.4707 22.0024 33.2312 22.1829 33.0352 22.4057L26.4702 29.9002L21.0318 24.4597C20.6255 24.0535 20.0745 23.8254 19.5 23.8254C18.9255 23.8254 18.3745 24.0535 17.9682 24.4597L9.3015 33.1264C9.09456 33.3263 8.9295 33.5653 8.81595 33.8297C8.7024 34.094 8.64263 34.3783 8.64013 34.666C8.63763 34.9537 8.69245 35.239 8.80139 35.5053C8.91033 35.7716 9.07121 36.0135 9.27465 36.2169C9.47808 36.4204 9.71999 36.5812 9.98627 36.6902C10.2525 36.7991 10.5379 36.8539 10.8255 36.8514C11.1132 36.8489 11.3975 36.7892 11.6619 36.6756C11.9262 36.5621 12.1653 36.397 12.3652 36.1901L19.5 29.0639L23.6167 33.1806L17.8685 39.7391C17.4898 40.1718 17.2985 40.7372 17.3367 41.3109C17.3749 41.8846 17.6395 42.4197 18.0722 42.7984C18.5049 43.1771 19.0703 43.3684 19.644 43.3302C20.2178 43.292 20.7528 43.0274 21.1315 42.5947L28.1038 34.6257H28.1168L28.132 34.6019L34.7728 27.0186L39.6348 31.8806C40.0435 32.2752 40.5908 32.4936 41.1589 32.4887C41.727 32.4838 42.2704 32.2559 42.6721 31.8542C43.0738 31.4525 43.3017 30.909 43.3066 30.3409C43.3116 29.7728 43.0932 29.2255 42.6985 28.8169L36.1985 22.3017Z" fill="#919191"/>
</svg>
