<svg width="38" height="52" viewBox="0 0 38 52" fill="none" xmlns="http://www.w3.org/2000/svg">
<path d="M18.5714 0C13.646 0 8.92226 1.95663 5.43945 5.43945C1.95663 8.92226 0 13.646 0 18.5714C0 28.1357 15.34 48.9171 17.0857 51.2571C17.2587 51.4878 17.483 51.675 17.7409 51.8039C17.9988 51.9329 18.2831 52 18.5714 52C18.8597 52 19.1441 51.9329 19.402 51.8039C19.6598 51.675 19.8842 51.4878 20.0571 51.2571C21.8029 48.9171 37.1429 28.1357 37.1429 18.5714C37.1429 16.1326 36.6625 13.7176 35.7292 11.4644C34.7959 9.21126 33.4279 7.16396 31.7034 5.43945C29.9789 3.71493 27.9316 2.34697 25.6784 1.41367C23.4252 0.480364 21.0103 0 18.5714 0ZM18.5714 46.9857C13.3714 39.7243 3.71429 24.9414 3.71429 18.5714C3.71429 14.6311 5.27959 10.8521 8.06584 8.06584C10.8521 5.27959 14.6311 3.71429 18.5714 3.71429C22.5118 3.71429 26.2908 5.27959 29.077 8.06584C31.8633 10.8521 33.4286 14.6311 33.4286 18.5714C33.4286 24.9414 23.7714 39.7243 18.5714 46.9857Z" fill="#ED711B"/>
<path d="M18.5714 9.28516C16.7349 9.28516 14.9396 9.82975 13.4126 10.8501C11.8855 11.8704 10.6954 13.3206 9.99254 15.0174C9.28973 16.7141 9.10584 18.5812 9.46413 20.3824C9.82242 22.1837 10.7068 23.8382 12.0054 25.1369C13.3041 26.4355 14.9586 27.3199 16.7599 27.6782C18.5611 28.0365 20.4282 27.8526 22.1249 27.1498C23.8217 26.4469 25.2719 25.2568 26.2922 23.7297C27.3125 22.2027 27.8571 20.4074 27.8571 18.5709C27.8571 16.1081 26.8788 13.7463 25.1374 12.0049C23.396 10.2635 21.0342 9.28516 18.5714 9.28516ZM18.5714 24.1423C17.4695 24.1423 16.3923 23.8155 15.4761 23.2033C14.5599 22.5911 13.8458 21.721 13.4241 20.703C13.0024 19.6849 12.8921 18.5647 13.107 17.4839C13.322 16.4032 13.8527 15.4105 14.6318 14.6313C15.411 13.8521 16.4037 13.3215 17.4845 13.1065C18.5652 12.8915 19.6855 13.0019 20.7035 13.4235C21.7216 13.8452 22.5917 14.5593 23.2039 15.4756C23.8161 16.3918 24.1429 17.4689 24.1429 18.5709C24.1429 20.0485 23.5559 21.4656 22.511 22.5105C21.4662 23.5553 20.0491 24.1423 18.5714 24.1423Z" fill="#ED711B"/>
</svg>
