<svg width="58" height="52" viewBox="0 0 58 52" fill="none" xmlns="http://www.w3.org/2000/svg">
<path d="M36.9866 20.2222C39.7895 20.2222 42.0616 22.4857 42.0616 25.2778V38.9971C42.0616 46.1783 36.2175 52 29.0087 52C21.7996 52 15.9556 46.1783 15.9556 38.9971V25.2778C15.9556 22.4857 18.2277 20.2222 21.0306 20.2222H36.9866ZM36.9866 24.5556H21.0306C20.6302 24.5556 20.3056 24.8788 20.3056 25.2778V38.9971C20.3056 43.7852 24.202 47.6667 29.0087 47.6667C33.8152 47.6667 37.7116 43.7852 37.7116 38.9971V25.2778C37.7116 24.8788 37.3871 24.5556 36.9866 24.5556ZM5.075 20.2222L14.8807 20.2195C13.8849 21.4197 13.2363 22.9161 13.088 24.5561L5.075 24.5556C4.6746 24.5556 4.35 24.8788 4.35 25.2778V34.6632C4.35 38.6539 7.59754 41.8889 11.6036 41.8889C12.1836 41.8889 12.7476 41.821 13.2883 41.693C13.5339 43.1487 13.9825 44.5371 14.6011 45.8293C13.6467 46.0864 12.6411 46.2222 11.6036 46.2222C5.19512 46.2222 0 41.0471 0 34.6632V25.2778C0 22.4857 2.27215 20.2222 5.075 20.2222ZM43.1366 20.2195L52.925 20.2222C55.7279 20.2222 58 22.4857 58 25.2778V34.6667C58 41.0485 52.8064 46.2222 46.4 46.2222C45.3664 46.2222 44.3642 46.0876 43.4104 45.8348C44.0336 44.54 44.4825 43.1516 44.7325 41.6956C45.2667 41.8224 45.8255 41.8889 46.4 41.8889C50.404 41.8889 53.65 38.6554 53.65 34.6667V25.2778C53.65 24.8788 53.3255 24.5556 52.925 24.5556L44.9291 24.5561C44.7809 22.9161 44.1322 21.4197 43.1366 20.2195ZM29 0C33.805 0 37.7 3.88021 37.7 8.66667C37.7 13.4531 33.805 17.3333 29 17.3333C24.195 17.3333 20.3 13.4531 20.3 8.66667C20.3 3.88021 24.195 0 29 0ZM47.85 2.88889C51.854 2.88889 55.1 6.12239 55.1 10.1111C55.1 14.0998 51.854 17.3333 47.85 17.3333C43.846 17.3333 40.6 14.0998 40.6 10.1111C40.6 6.12239 43.846 2.88889 47.85 2.88889ZM10.15 2.88889C14.1541 2.88889 17.4 6.12239 17.4 10.1111C17.4 14.0998 14.1541 17.3333 10.15 17.3333C6.14594 17.3333 2.9 14.0998 2.9 10.1111C2.9 6.12239 6.14594 2.88889 10.15 2.88889ZM29 4.33333C26.5976 4.33333 24.65 6.27342 24.65 8.66667C24.65 11.0599 26.5976 13 29 13C31.4024 13 33.35 11.0599 33.35 8.66667C33.35 6.27342 31.4024 4.33333 29 4.33333ZM47.85 7.22222C46.2483 7.22222 44.95 8.51564 44.95 10.1111C44.95 11.7066 46.2483 13 47.85 13C49.4517 13 50.75 11.7066 50.75 10.1111C50.75 8.51564 49.4517 7.22222 47.85 7.22222ZM10.15 7.22222C8.54839 7.22222 7.25 8.51564 7.25 10.1111C7.25 11.7066 8.54839 13 10.15 13C11.7516 13 13.05 11.7066 13.05 10.1111C13.05 8.51564 11.7516 7.22222 10.15 7.22222Z" fill="#ED711B"/>
</svg>
