<svg width="55" height="52" viewBox="0 0 55 52" fill="none" xmlns="http://www.w3.org/2000/svg">
<path d="M40.5952 23.4C48.5509 23.4 55 29.8022 55 37.7C55 45.5978 48.5509 52 40.5952 52C32.6396 52 26.1905 45.5978 26.1905 37.7C26.1905 29.8022 32.6396 23.4 40.5952 23.4ZM40.5952 28.5979L40.3598 28.619C39.8252 28.7152 39.4038 29.1338 39.3069 29.6644L39.2857 29.8979L39.2847 36.3979L32.7321 36.4L32.4966 36.4211C31.9621 36.5173 31.5404 36.9356 31.4435 37.4663L31.4225 37.7L31.4435 37.9337C31.5404 38.4644 31.9621 38.8827 32.4966 38.9789L32.7321 39L39.2875 38.9979L39.2886 45.5091L39.3098 45.7428C39.4067 46.2735 39.8281 46.6918 40.3627 46.788L40.5981 46.8091L40.8336 46.788C41.3681 46.6918 41.7895 46.2735 41.8867 45.7428L41.9076 45.5091L41.9066 38.9979L48.4644 39L48.6996 38.9789C49.2342 38.8827 49.6558 38.4644 49.7527 37.9337L49.774 37.7L49.7527 37.4663C49.6558 36.9356 49.2342 36.5173 48.6996 36.4211L48.4644 36.4L41.9037 36.3979L41.9048 29.8979L41.8835 29.6644C41.7866 29.1338 41.3652 28.7152 40.8307 28.619L40.5952 28.5979ZM32.0938 18.2C34.2797 18.2 36.1874 19.3812 37.2046 21.1359C35.8076 21.4157 34.4748 21.865 33.2265 22.4609C32.9081 22.2326 32.5165 22.1 32.0938 22.1H20.3027C19.2178 22.1 18.3384 22.9731 18.3384 24.05V35.0974C18.3384 38.7657 20.8884 41.8428 24.3247 42.6769C24.7772 44.1475 25.4302 45.5333 26.2497 46.8031L26.1983 46.8C19.6877 46.8 14.4098 41.5605 14.4098 35.0974V24.05C14.4098 20.8192 17.0481 18.2 20.3027 18.2H32.0938ZM14.1597 18.2008C13.1261 19.2702 12.3731 20.6092 12.0183 22.1008L5.89286 22.1C4.80802 22.1 3.92857 22.9731 3.92857 24.05V31.1969C3.92857 34.7885 6.86149 37.7 10.4794 37.7C11.0032 37.7 11.5127 37.6389 12.0009 37.5237C12.2228 38.8339 12.6279 40.0834 13.1866 41.2464C12.3246 41.4778 11.4164 41.6 10.4794 41.6C4.69181 41.6 0 36.9424 0 31.1969V24.05C0 20.9537 2.42304 18.4194 5.48939 18.2135L5.89286 18.2L14.1597 18.2008ZM46.4881 18.2C49.7425 18.2 52.381 20.8192 52.381 24.05L52.383 25.507C49.324 22.5917 45.1705 20.8 40.5952 20.8L39.9531 20.8117C39.5502 19.8357 38.9628 18.9519 38.2368 18.2008L46.4881 18.2ZM43.2143 2.6C46.8304 2.6 49.7619 5.51015 49.7619 9.1C49.7619 12.6898 46.8304 15.6 43.2143 15.6C39.5982 15.6 36.6667 12.6898 36.6667 9.1C36.6667 5.51015 39.5982 2.6 43.2143 2.6ZM26.1905 0C30.53 0 34.0476 3.49219 34.0476 7.8C34.0476 12.1078 30.53 15.6 26.1905 15.6C21.851 15.6 18.3333 12.1078 18.3333 7.8C18.3333 3.49219 21.851 0 26.1905 0ZM9.16667 2.6C12.7828 2.6 15.7143 5.51015 15.7143 9.1C15.7143 12.6898 12.7828 15.6 9.16667 15.6C5.55052 15.6 2.61905 12.6898 2.61905 9.1C2.61905 5.51015 5.55052 2.6 9.16667 2.6ZM43.2143 6.5C41.7678 6.5 40.5952 7.66407 40.5952 9.1C40.5952 10.5359 41.7678 11.7 43.2143 11.7C44.6608 11.7 45.8333 10.5359 45.8333 9.1C45.8333 7.66407 44.6608 6.5 43.2143 6.5ZM26.1905 3.9C24.0209 3.9 22.2619 5.64608 22.2619 7.8C22.2619 9.95392 24.0209 11.7 26.1905 11.7C28.3601 11.7 30.119 9.95392 30.119 7.8C30.119 5.64608 28.3601 3.9 26.1905 3.9ZM9.16667 6.5C7.72022 6.5 6.54762 7.66407 6.54762 9.1C6.54762 10.5359 7.72022 11.7 9.16667 11.7C10.6131 11.7 11.7857 10.5359 11.7857 9.1C11.7857 7.66407 10.6131 6.5 9.16667 6.5Z" fill="#ED711B"/>
</svg>
