<svg width="52" height="52" viewBox="0 0 52 52" fill="none" xmlns="http://www.w3.org/2000/svg">
<path fill-rule="evenodd" clip-rule="evenodd" d="M2.6 0C4.03593 0 5.2 1.16407 5.2 2.6V46.8H49.4C50.836 46.8 52 47.964 52 49.4C52 50.836 50.836 52 49.4 52H2.6C1.16407 52 0 50.836 0 49.4V2.6C0 1.16407 1.16407 0 2.6 0Z" fill="#ED711B"/>
<path fill-rule="evenodd" clip-rule="evenodd" d="M13 31.1992C14.4359 31.1992 15.6 32.3632 15.6 33.7992V38.9992C15.6 40.4352 14.4359 41.5992 13 41.5992C11.5641 41.5992 10.4 40.4352 10.4 38.9992V33.7992C10.4 32.3632 11.5641 31.1992 13 31.1992Z" fill="#ED711B"/>
<path fill-rule="evenodd" clip-rule="evenodd" d="M33.8 13C35.236 13 36.4 14.1641 36.4 15.6V39C36.4 40.436 35.236 41.6 33.8 41.6C32.364 41.6 31.2 40.436 31.2 39V15.6C31.2 14.1641 32.364 13 33.8 13Z" fill="#ED711B"/>
<path fill-rule="evenodd" clip-rule="evenodd" d="M44.2 0C45.636 0 46.8 1.16407 46.8 2.6V39C46.8 40.436 45.636 41.6 44.2 41.6C42.764 41.6 41.6 40.436 41.6 39V2.6C41.6 1.16407 42.764 0 44.2 0Z" fill="#ED711B"/>
<path fill-rule="evenodd" clip-rule="evenodd" d="M23.4 23.4004C24.836 23.4004 26 24.5644 26 26.0004V39.0004C26 40.4364 24.836 41.6004 23.4 41.6004C21.964 41.6004 20.8 40.4364 20.8 39.0004V26.0004C20.8 24.5644 21.964 23.4004 23.4 23.4004Z" fill="#ED711B"/>
</svg>
