<svg width="60" height="52" viewBox="0 0 60 52" fill="none" xmlns="http://www.w3.org/2000/svg">
<path d="M53.2436 16.4277V17.8372V49.1488H47.1747V21.0706V19.6556H44.3614V21.0706V49.1488H38.3146V25.2934V23.8563H35.4847V25.2934V49.1488H28.8244H27.4205V52.0009H28.8244H58.2844H59.6883V49.1488H58.2844H56.057V17.8372V16.4277H53.2436Z" fill="#ED711B"/>
<path d="M44.5493 0V2.84651H45.9809H49.7781L41.1943 11.5685L36.3635 6.67134L25.5081 18.3669L24.9111 19.0081C22.3894 17.3797 19.3996 16.4269 16.1892 16.4269C7.25839 16.4269 0 23.7378 0 32.7211C0 41.7043 7.25839 49.0208 16.1892 49.0208C25.12 49.0208 32.395 41.7043 32.395 32.7211C32.395 27.9952 30.3699 23.7463 27.1607 20.7657L27.5863 20.307L36.4464 10.767L41.1943 15.5812L51.7347 4.86947V8.71641V10.1314H54.5646V8.71641V0H45.9809H44.5493ZM16.1892 19.2734C23.5944 19.2734 29.5816 25.271 29.5816 32.7211C29.5816 40.171 23.5944 46.1743 16.1892 46.1743C8.784 46.1743 2.81335 40.171 2.81335 32.7211C2.81335 25.271 8.784 19.2734 16.1892 19.2734Z" fill="#ED711B"/>
<path d="M14.7743 23.8828V25.3088V26.1379H11.2313V34.1358H18.3283V36.4627H12.6629H11.2313V39.3093H12.6629H14.7743V40.1328V41.5644H17.6153V40.1328V39.3093H21.1416V31.2893H14.0668V28.9844H19.7377H21.1416V26.1379H19.7377H17.6153V25.3088V23.8828H14.7743Z" fill="#ED711B"/>
</svg>
