<svg width="48" height="52" viewBox="0 0 48 52" fill="none" xmlns="http://www.w3.org/2000/svg">
<path d="M30.3965 36.1397C30.6489 34.2886 30.1441 32.4164 29.0292 31.0281C28.1457 29.9553 26.8625 29.3242 25.5162 29.3242H25.4952C24.1489 29.3242 22.8868 29.9342 22.0033 30.986C20.0049 33.3841 19.7946 36.5394 21.4774 39.2109C22.1295 40.2627 23.1813 40.9779 24.4014 41.2092C24.6959 41.2724 24.9904 41.2934 25.2849 41.2934C26.1894 41.2934 27.0729 41.0199 27.8302 40.473C29.2185 39.5264 30.1441 37.9277 30.3965 36.1397ZM26.6311 38.7902C26.1052 39.1688 25.4531 39.295 24.8221 39.1688C24.17 39.0426 23.623 38.664 23.2654 38.096C22.0874 36.2238 22.2137 34.0151 23.623 32.3323C24.1069 31.7433 24.78 31.4278 25.4952 31.4278C26.2104 31.4278 26.9046 31.7643 27.3884 32.3744C28.1457 33.321 28.4823 34.5831 28.314 35.8662C28.1457 37.0653 27.5357 38.1381 26.6311 38.7902Z" fill="#ED711B"/>
<path d="M45.416 41.3767C44.0276 39.8622 41.6506 39.5466 39.9046 40.6194C38.4111 41.524 37.4014 43.1437 37.1279 45.0369C36.8334 47.0142 37.3593 48.9284 38.5794 50.3168C39.526 51.4106 40.7671 51.9575 42.0082 51.9575C42.8707 51.9575 43.7542 51.6841 44.5325 51.1372C45.9839 50.1064 46.9305 48.4446 47.1199 46.5725C47.3092 44.6372 46.6992 42.744 45.416 41.3767ZM45.0163 46.3621C44.8901 47.6453 44.259 48.7602 43.3124 49.4333C42.2817 50.1695 41.0406 49.9592 40.1571 48.9495C39.3367 48.0239 39.0001 46.7197 39.2105 45.3524C39.3998 44.0693 40.0729 42.9964 41.0195 42.4075C41.3771 42.1761 41.7978 42.0709 42.2186 42.0709C42.8496 42.0709 43.4386 42.3444 43.9014 42.8282C44.7428 43.7327 45.1636 45.0159 45.0163 46.3621Z" fill="#ED711B"/>
<path d="M40.8512 29.4714C40.3674 29.1559 39.7153 29.3031 39.3998 29.787L26.3156 50.3807C26.0001 50.8645 26.1473 51.5166 26.6311 51.8321C26.7994 51.9373 27.0098 52.0004 27.1991 52.0004C27.5357 52.0004 27.8933 51.8321 28.0826 51.5166L41.1668 30.9229C41.4823 30.418 41.3351 29.7659 40.8512 29.4714Z" fill="#ED711B"/>
<path d="M10.2864 12.2637C13.6732 12.2637 16.4078 9.50802 16.4078 6.14235C16.4078 2.77668 13.6732 0 10.2864 0C6.89969 0 4.16505 2.75564 4.16505 6.12132C4.16505 9.48699 6.89969 12.2637 10.2864 12.2637ZM10.2864 2.10354C12.5162 2.10354 14.3253 3.91259 14.3253 6.14235C14.3253 8.37211 12.5162 10.1812 10.2864 10.1812C8.05665 10.1812 6.24758 8.37211 6.24758 6.14235C6.24758 3.91259 8.07769 2.10354 10.2864 2.10354Z" fill="#ED711B"/>
<path d="M17.691 20.6148C17.123 20.5728 16.6182 21.0145 16.5761 21.5825L15.6295 35.3607C15.6295 35.4027 15.6085 35.4448 15.6085 35.4658L14.725 48.8444C14.6829 49.4334 14.1991 49.8751 13.6311 49.8751H6.9628C6.3738 49.8751 5.88998 49.4124 5.84791 48.8444L4.98545 35.4658C4.96441 35.0241 4.66992 34.6665 4.2492 34.5403C2.98706 34.1617 2.98706 34.1617 2.88188 32.7523L2.08253 18.5533V18.4271C3.61813 17.9644 5.15374 17.4805 6.71037 16.9757C7.38351 17.775 8.07769 18.5744 8.81394 19.3948L9.50812 20.1731C9.69744 20.4045 9.99194 20.5307 10.2864 20.5307C10.5809 20.5307 10.8754 20.4045 11.0648 20.1731L11.9062 19.2265C12.5793 18.4692 13.2104 17.733 13.8415 16.9967C13.8625 16.9967 13.8835 16.9967 13.9256 16.9967L24.2331 19.3317C24.3803 19.3737 24.5276 19.3737 24.6748 19.3317L33.9515 17.4385C34.5195 17.3123 34.8771 16.7653 34.7719 16.1974C34.6457 15.6294 34.0988 15.2508 33.5308 15.377L24.4855 17.2281L14.3042 14.8932C14.2622 14.8932 14.2201 14.8721 14.157 14.8721C13.9677 14.8511 12.9369 14.809 12.3479 15.5032C11.6958 16.2815 11.0437 17.0178 10.3495 17.8171L10.3075 17.8802C9.59226 17.0809 8.91912 16.3026 8.24598 15.5242C7.69905 14.8721 6.98384 14.6618 6.20552 14.9353C4.62784 15.4401 3.05017 15.945 1.4725 16.4288C0.525891 16.7233 0 17.4385 0 18.4061C0 18.4902 0 18.6585 0 18.6585L0.778319 32.6681L0.799355 32.8995C0.946604 35.0241 1.30421 35.6972 2.94499 36.3073L3.78642 48.9916C3.8916 50.6745 5.30098 51.9997 6.98384 51.9997H13.6521C15.335 51.9997 16.7444 50.6745 16.8496 48.9916L17.712 35.6972C17.712 35.6552 17.712 35.6341 17.7331 35.5921L18.6797 21.7087C18.7007 21.1407 18.2589 20.6359 17.691 20.6148Z" fill="#ED711B"/>
</svg>
