<svg width="60" height="56" viewBox="0 0 60 56" fill="none" xmlns="http://www.w3.org/2000/svg">
<path d="M30.1339 15.3381C30.1339 15.3381 30.1328 15.338 30.1277 15.3375C30.1229 15.3371 30.1122 15.336 30.1017 15.336C30.0933 15.336 30.0854 15.3364 30.0805 15.3367L30.0692 15.3373C28.1452 15.3176 26.5857 13.7498 26.5857 11.8217C26.5858 9.88158 28.1641 8.30237 30.1051 8.30237C32.0457 8.30237 33.6245 9.88158 33.6245 11.8218C33.6245 13.7522 32.0617 15.3227 30.1339 15.3381ZM30.1339 15.4381C32.1164 15.4223 33.7245 13.8073 33.7245 11.8218C33.7245 9.82638 32.1009 8.20237 30.1051 8.20237C28.1121 8.20237 26.491 9.82117 26.4857 11.8121V11.8314C26.4909 13.8104 28.0933 15.4176 30.0691 15.4373C30.0803 15.4373 30.091 15.436 30.1017 15.436C30.1071 15.436 30.1124 15.4365 30.1178 15.437C30.1231 15.4376 30.1285 15.4381 30.1339 15.4381ZM5.3325 47.8796C5.79285 47.2439 6.31713 46.6567 6.91745 46.1369C6.91739 46.1369 6.9175 46.1369 6.91745 46.1369L6.98306 46.2124L5.3325 47.8796ZM5.3325 47.8796C2.65348 43.9512 2.98889 38.5348 6.32518 34.9854L6.38339 34.9235C10.3448 30.7686 16.8395 30.6813 20.9335 34.5301C24.6578 38.0302 25.1973 43.7334 22.383 47.8804M5.3325 47.8796L22.383 47.8804ZM22.383 47.8804C21.1239 46.1676 19.3642 44.8849 17.3733 44.1771C18.554 43.1771 19.3194 41.6996 19.3194 40.032C19.3194 37.0212 16.8709 34.5729 13.8603 34.5729C10.8495 34.5729 8.40112 37.0213 8.40112 40.032C8.40112 41.6909 9.15897 43.1615 10.3292 44.1614L22.383 47.8804ZM55.1483 32.6933C53.687 31.3187 51.9498 30.324 50.0713 29.7563C49.3391 24.6488 46.6659 20.013 42.598 16.799C43.5974 12.4708 42.3465 7.7204 38.911 4.48515C33.702 -0.413115 25.5597 -0.0779357 20.7402 5.04858C17.7034 8.27127 16.6659 12.7287 17.6096 16.7929C13.5417 20.0103 10.8723 24.6509 10.1495 29.7648C8.00685 30.4126 6.04035 31.6048 4.48775 33.2593C-3.1865 41.4259 2.63581 54.9208 13.8561 54.9208C17.1325 54.9208 20.2927 53.6389 22.7031 51.361C25.0537 52.2962 27.5337 52.7934 30.1013 52.7934C32.6686 52.7934 35.1438 52.2979 37.487 51.3692C40.3483 54.1015 44.0795 55.118 47.5229 54.8621C50.9804 54.6052 54.1612 53.064 55.8838 50.671C60.5587 45.5182 60.2285 37.4543 55.1483 32.6933ZM37.1835 6.31972C40.8974 9.81778 41.4375 15.5178 38.6348 19.6661C37.3703 17.9326 35.6252 16.6561 33.631 15.9558C34.8044 14.9558 35.5642 13.4836 35.5642 11.8222C35.5642 8.81227 33.1158 6.36307 30.1051 6.36307C27.0944 6.36307 24.646 8.81227 24.646 11.8222C24.646 13.4808 25.4039 14.9509 26.5737 15.9508C24.5542 16.6634 22.8548 17.9224 21.5809 19.6703C18.8932 15.7427 19.229 10.3269 22.5751 6.77669L22.6321 6.71619C26.5922 2.56936 33.0909 2.47153 37.1835 6.31972ZM30.0856 17.2798L30.0889 17.2809H30.1051C30.1126 17.2809 30.119 17.2803 30.124 17.2798C30.1286 17.2792 30.133 17.2785 30.135 17.2782L30.137 17.2779C33.094 17.2899 35.7657 18.7797 37.3421 21.2177C35.4015 23.1321 32.853 24.1901 30.1073 24.1901C27.5266 24.1901 24.9419 23.2472 22.8772 21.2223C24.5136 18.6624 27.2537 17.2885 30.0678 17.2775C30.0684 17.2775 30.0699 17.2777 30.0727 17.2781C30.0752 17.2785 30.0798 17.2792 30.0856 17.2798ZM10.3404 40.0316V40.011C10.3516 38.0799 11.9256 36.5123 13.8597 36.5123C15.8003 36.5123 17.3791 38.0907 17.3791 40.0317C17.3791 41.9629 15.8156 43.5326 13.8882 43.548C13.8876 43.548 13.8867 43.5479 13.8852 43.5477C13.8818 43.5474 13.8726 43.5463 13.8623 43.5463C13.8539 43.5463 13.8458 43.5468 13.8408 43.5471L13.8305 43.5476C13.8307 43.5476 13.8303 43.5476 13.8305 43.5476C11.9034 43.5309 10.3404 41.9618 10.3404 40.0316ZM13.719 45.4888L13.7183 45.4908H13.8597C13.8723 45.4908 13.8834 45.4892 13.8881 45.4884C13.8897 45.4881 13.8914 45.488 13.8921 45.4878C16.8058 45.4983 19.5267 47.0194 21.0911 49.4273C19.1505 51.3428 16.602 52.4009 13.8567 52.4009C11.2569 52.4009 8.67503 51.4439 6.62839 49.4347C7.06264 48.7535 7.57515 48.1332 8.18904 47.6015C9.72066 46.2688 11.6792 45.5223 13.719 45.4888ZM36.9781 33.2593C32.8128 37.6914 32.4082 44.4607 35.7597 49.3305C32.1209 50.5571 28.0995 50.5594 24.4506 49.3283C27.9667 44.2021 27.3124 37.0669 22.6584 32.6942C20.019 30.212 16.4644 28.9414 12.7792 29.2557C13.5196 25.4106 15.5265 21.9183 18.485 19.3275C20.5813 23.7912 25.0671 26.7097 30.1073 26.7097C34.9233 26.7097 39.5689 23.9492 41.7243 19.3349C44.6832 21.9234 46.6951 25.4115 47.4425 29.2513C43.4261 28.9104 39.5871 30.478 36.9781 33.2593ZM42.8307 40.0316V40.0096C42.8427 38.0791 44.4164 36.5123 46.35 36.5123C48.2906 36.5123 49.8694 38.0907 49.8694 40.0317C49.8694 41.9625 48.3062 43.5327 46.3783 43.548C46.3778 43.548 46.3768 43.5479 46.375 43.5477C46.3736 43.5476 46.3711 43.5473 46.3679 43.547C46.3636 43.5467 46.358 43.5463 46.3522 43.5463C46.3438 43.5463 46.3357 43.5468 46.3307 43.5471L46.3204 43.5476C46.3206 43.5476 46.3202 43.5476 46.3204 43.5476C44.3938 43.5309 42.8307 41.9618 42.8307 40.0316ZM46.3499 45.4909L46.35 45.3996V45.3908L46.3521 45.4908C46.3601 45.4907 46.3668 45.49 46.3721 45.4893C46.375 45.489 46.3773 45.4886 46.3788 45.4884L46.382 45.4879C46.3818 45.488 46.3822 45.4879 46.382 45.4879C49.3345 45.4983 52.0074 46.987 53.585 49.4242C49.5907 53.3688 43.175 53.4236 39.1163 49.4327C39.5428 48.7633 40.0588 48.1361 40.6658 47.6043C42.2382 46.247 44.2435 45.4967 46.3172 45.4878L46.3194 45.4882C46.3242 45.4889 46.3365 45.4908 46.3499 45.4909ZM37.8211 47.8772C35.1433 43.9488 35.4796 38.5337 38.8154 34.9852C42.7725 30.7683 49.3114 30.6638 53.4254 34.532C57.1609 38.0336 57.6926 43.7544 54.8792 47.8746C53.6143 46.1414 51.8693 44.8649 49.876 44.1653C51.049 43.1653 51.8091 41.6932 51.8091 40.0317C51.8091 37.021 49.3607 34.5726 46.35 34.5726C43.3393 34.5726 40.8909 37.0211 40.8909 40.0317C40.8909 41.6911 41.6492 43.1617 42.8198 44.1616C41.5756 44.5996 40.4099 45.2616 39.3929 46.1398C38.8003 46.6592 38.2767 47.249 37.8211 47.8772Z" fill="white"/>
<path d="M30.1339 15.4381V15.3381M30.1339 15.4381C32.1164 15.4223 33.7245 13.8073 33.7245 11.8218C33.7245 9.82638 32.1009 8.20237 30.1051 8.20237C28.1121 8.20237 26.491 9.82117 26.4857 11.8121V11.8314C26.4909 13.8104 28.0933 15.4176 30.0691 15.4373C30.0803 15.4373 30.091 15.436 30.1017 15.436C30.1071 15.436 30.1124 15.4365 30.1178 15.437C30.1231 15.4376 30.1285 15.4381 30.1339 15.4381ZM30.1339 15.3381C30.1339 15.3381 30.1328 15.338 30.1277 15.3375C30.1229 15.3371 30.1122 15.336 30.1017 15.336C30.0933 15.336 30.0854 15.3364 30.0805 15.3367L30.0692 15.3373C28.1452 15.3176 26.5857 13.7498 26.5857 11.8217C26.5858 9.88158 28.1641 8.30237 30.1051 8.30237C32.0457 8.30237 33.6245 9.88158 33.6245 11.8218C33.6245 13.7522 32.0617 15.3227 30.1339 15.3381ZM5.3325 47.8796C5.79285 47.2439 6.31713 46.6567 6.91745 46.1369M5.3325 47.8796L6.98306 46.2124L6.91745 46.1369M5.3325 47.8796C2.65348 43.9512 2.98889 38.5348 6.32518 34.9854L6.38339 34.9235C10.3448 30.7686 16.8395 30.6813 20.9335 34.5301M5.3325 47.8796L22.383 47.8804M6.91745 46.1369C6.9175 46.1369 6.91739 46.1369 6.91745 46.1369ZM20.9335 34.5301L21.002 34.4573M20.9335 34.5301C24.6578 38.0302 25.1973 43.7334 22.383 47.8804M22.383 47.8804C21.1239 46.1676 19.3642 44.8849 17.3733 44.1771C18.554 43.1771 19.3194 41.6996 19.3194 40.032C19.3194 37.0212 16.8709 34.5729 13.8603 34.5729C10.8495 34.5729 8.40112 37.0213 8.40112 40.032C8.40112 41.6909 9.15897 43.1615 10.3292 44.1614L22.383 47.8804ZM13.8305 43.5476L13.8408 43.5471C13.8458 43.5468 13.8539 43.5463 13.8623 43.5463C13.8726 43.5463 13.8818 43.5474 13.8852 43.5477C13.8867 43.5479 13.8876 43.548 13.8882 43.548C15.8156 43.5326 17.3791 41.9629 17.3791 40.0317C17.3791 38.0907 15.8003 36.5123 13.8597 36.5123C11.9256 36.5123 10.3516 38.0799 10.3404 40.011V40.0316C10.3404 41.9618 11.9034 43.5309 13.8305 43.5476ZM13.8305 43.5476C13.8303 43.5476 13.8307 43.5476 13.8305 43.5476ZM46.3204 43.5476L46.3307 43.5471C46.3357 43.5468 46.3438 43.5463 46.3522 43.5463C46.358 43.5463 46.3636 43.5467 46.3679 43.547C46.3711 43.5473 46.3736 43.5476 46.375 43.5477C46.3768 43.5479 46.3778 43.548 46.3783 43.548C48.3062 43.5327 49.8694 41.9625 49.8694 40.0317C49.8694 38.0907 48.2906 36.5123 46.35 36.5123C44.4164 36.5123 42.8427 38.0791 42.8307 40.0096V40.0316C42.8307 41.9618 44.3938 43.5309 46.3204 43.5476ZM46.3204 43.5476C46.3202 43.5476 46.3206 43.5476 46.3204 43.5476ZM46.382 45.4879L46.3788 45.4884C46.3773 45.4886 46.375 45.489 46.3721 45.4893C46.3668 45.49 46.3601 45.4907 46.3521 45.4908L46.35 45.3908V45.3996L46.3499 45.4909C46.3365 45.4908 46.3242 45.4889 46.3194 45.4882L46.3172 45.4878C44.2435 45.4967 42.2382 46.247 40.6658 47.6043C40.0588 48.1361 39.5428 48.7633 39.1163 49.4327C43.175 53.4236 49.5907 53.3688 53.585 49.4242C52.0074 46.987 49.3345 45.4983 46.382 45.4879ZM46.382 45.4879C46.3822 45.4879 46.3818 45.488 46.382 45.4879ZM55.1483 32.6933C53.687 31.3187 51.9498 30.324 50.0713 29.7563C49.3391 24.6488 46.6659 20.013 42.598 16.799C43.5974 12.4708 42.3465 7.7204 38.911 4.48515C33.702 -0.413115 25.5597 -0.0779357 20.7402 5.04858C17.7034 8.27127 16.6659 12.7287 17.6096 16.7929C13.5417 20.0103 10.8723 24.6509 10.1495 29.7648C8.00685 30.4126 6.04035 31.6048 4.48775 33.2593C-3.1865 41.4259 2.63581 54.9208 13.8561 54.9208C17.1325 54.9208 20.2927 53.6389 22.7031 51.361C25.0537 52.2962 27.5337 52.7934 30.1013 52.7934C32.6686 52.7934 35.1438 52.2979 37.487 51.3692C40.3483 54.1015 44.0795 55.118 47.5229 54.8621C50.9804 54.6052 54.1612 53.064 55.8838 50.671C60.5587 45.5182 60.2285 37.4543 55.1483 32.6933ZM37.1835 6.31972C40.8974 9.81778 41.4375 15.5178 38.6348 19.6661C37.3703 17.9326 35.6252 16.6561 33.631 15.9558C34.8044 14.9558 35.5642 13.4836 35.5642 11.8222C35.5642 8.81227 33.1158 6.36307 30.1051 6.36307C27.0944 6.36307 24.646 8.81227 24.646 11.8222C24.646 13.4808 25.4039 14.9509 26.5737 15.9508C24.5542 16.6634 22.8548 17.9224 21.5809 19.6703C18.8932 15.7427 19.229 10.3269 22.5751 6.77669L22.6321 6.71619C26.5922 2.56936 33.0909 2.47153 37.1835 6.31972ZM30.0856 17.2798L30.0889 17.2809H30.1051C30.1126 17.2809 30.119 17.2803 30.124 17.2798C30.1286 17.2792 30.133 17.2785 30.135 17.2782L30.137 17.2779C33.094 17.2899 35.7657 18.7797 37.3421 21.2177C35.4015 23.1321 32.853 24.1901 30.1073 24.1901C27.5266 24.1901 24.9419 23.2472 22.8772 21.2223C24.5136 18.6624 27.2537 17.2885 30.0678 17.2775C30.0684 17.2775 30.0699 17.2777 30.0727 17.2781C30.0752 17.2785 30.0798 17.2792 30.0856 17.2798ZM13.719 45.4888L13.7183 45.4908H13.8597C13.8723 45.4908 13.8834 45.4892 13.8881 45.4884C13.8897 45.4881 13.8914 45.488 13.8921 45.4878C16.8058 45.4983 19.5267 47.0194 21.0911 49.4273C19.1505 51.3428 16.602 52.4009 13.8567 52.4009C11.2569 52.4009 8.67503 51.4439 6.62839 49.4347C7.06264 48.7535 7.57515 48.1332 8.18904 47.6015C9.72066 46.2688 11.6792 45.5223 13.719 45.4888ZM36.9781 33.2593C32.8128 37.6914 32.4082 44.4607 35.7597 49.3305C32.1209 50.5571 28.0995 50.5594 24.4506 49.3283C27.9667 44.2021 27.3124 37.0669 22.6584 32.6942C20.019 30.212 16.4644 28.9414 12.7792 29.2557C13.5196 25.4106 15.5265 21.9183 18.485 19.3275C20.5813 23.7912 25.0671 26.7097 30.1073 26.7097C34.9233 26.7097 39.5689 23.9492 41.7243 19.3349C44.6832 21.9234 46.6951 25.4115 47.4425 29.2513C43.4261 28.9104 39.5871 30.478 36.9781 33.2593ZM37.8211 47.8772C35.1433 43.9488 35.4796 38.5337 38.8154 34.9852C42.7725 30.7683 49.3114 30.6638 53.4254 34.532C57.1609 38.0336 57.6926 43.7544 54.8792 47.8746C53.6143 46.1414 51.8693 44.8649 49.876 44.1653C51.049 43.1653 51.8091 41.6932 51.8091 40.0317C51.8091 37.021 49.3607 34.5726 46.35 34.5726C43.3393 34.5726 40.8909 37.0211 40.8909 40.0317C40.8909 41.6911 41.6492 43.1617 42.8198 44.1616C41.5756 44.5996 40.4099 45.2616 39.3929 46.1398C38.8003 46.6592 38.2767 47.249 37.8211 47.8772Z" stroke="white" stroke-width="0.2"/>
</svg>
