<svg width="52" height="52" viewBox="0 0 52 52" fill="none" xmlns="http://www.w3.org/2000/svg">
<path d="M50.1583 37.2511C47.8907 35.1713 45.8124 32.9021 43.7337 30.8219C41.4661 28.5526 38.2541 28.5526 35.7977 30.8219L35.4197 31.0109C34.2859 32.1455 33.1521 33.0907 32.0184 34.4146C31.8296 34.2256 31.6404 34.2256 31.4515 34.2256C31.0735 34.0367 30.3177 33.8473 29.9401 33.4694C26.5388 31.3895 23.5156 28.553 20.303 24.7712C18.7916 23.0694 17.8466 21.3675 17.0909 19.8549C18.0359 18.9093 18.9804 17.9641 19.9254 17.0184L20.6811 16.2621C23.1375 13.8039 23.1375 10.5895 20.6811 8.1314C19.9254 7.3751 19.1696 6.6188 18.4135 5.86212L17.847 4.91647C17.4689 4.53815 17.2801 4.34916 16.902 3.97081C16.1463 3.21453 15.3906 2.45826 14.6344 1.70193C12.3668 -0.56731 9.1548 -0.56731 6.6984 1.70193C6.1319 2.26924 5.56503 2.83656 4.99818 3.40382C4.2421 4.1601 3.48637 4.91637 2.7306 5.67269C1.21915 7.1856 0.274194 9.0765 0.0853636 11.1564C-0.292676 14.5602 0.652253 17.5856 1.59681 19.8545C3.48627 24.9598 6.5095 29.6872 10.4778 34.7924C15.5793 40.8434 21.6254 45.5704 28.6171 48.9745C32.585 50.8654 35.7974 51.811 39.0095 52H39.7652C42.5996 52 44.8668 51.0543 46.5675 48.9745L48.8351 46.7053C49.2131 46.327 49.5908 45.949 50.1577 45.5707C52.6141 42.9239 52.6147 39.7093 50.1583 37.2511ZM47.7019 43.1127C47.3238 43.491 46.9461 43.869 46.3792 44.2473C45.6235 45.0036 44.6786 45.9492 43.9228 46.8945C42.6002 48.2181 41.2776 48.7854 39.0101 48.5964C36.3649 48.4074 33.3416 47.4618 29.9403 45.9492C23.5158 42.7348 17.6588 38.1964 12.7456 32.5239C8.9665 27.9859 6.321 23.4475 4.43148 18.7198C3.67576 15.8836 3.10886 13.8038 3.29769 11.5346C3.48653 10.211 3.86457 9.2653 4.80913 8.3201C5.7541 7.5635 6.5098 6.6183 7.2655 5.86194C7.8324 5.29464 8.3993 4.72731 8.777 4.34939C9.5331 3.78172 10.1 3.40373 10.6668 3.40373C11.2337 3.40373 11.8006 3.78169 12.3675 4.34901C13.1232 5.10529 13.8789 5.86157 14.635 6.6183C14.8239 6.8072 15.2016 7.1856 15.5796 7.5635L18.7921 10.7784C20.1147 12.1019 20.1147 13.0476 18.7921 14.1821L17.8471 14.938C16.9022 15.8837 15.7685 17.0182 14.6347 17.9635C14.0681 18.5308 13.5012 19.4764 14.0681 20.8C14.8239 22.8798 16.1464 24.7708 17.8472 27.0399C21.0593 31.0107 24.4605 34.2255 28.2396 36.4947C28.8064 36.873 29.3733 37.2509 29.9402 37.4403C30.3182 37.6293 30.5071 37.6293 30.8852 37.8186C32.019 38.3859 33.1527 38.197 34.0972 37.4403C35.4199 36.3057 36.5537 34.9821 37.6874 33.8476L38.0654 33.6586C39.1992 32.524 40.333 32.524 41.4667 33.6586C43.545 35.7384 45.6237 37.8187 47.8912 40.0878C48.8351 40.6548 48.8354 41.9784 47.7019 43.1127Z" fill="white"/>
</svg>
