<svg width="56" height="52" viewBox="0 0 56 52" fill="none" xmlns="http://www.w3.org/2000/svg">
<path d="M10.4328 29.3672C11.8945 27.9059 13.9106 26.9971 16.1482 26.9971C18.3858 26.9971 20.401 27.9056 21.8626 29.3672C23.3238 30.8289 24.2327 32.845 24.2327 35.0826C24.2327 35.3368 24.2214 35.5799 24.1986 35.82H53.2287V3.23944H3.23873V35.82H8.09688C8.07408 35.5799 8.0627 35.3367 8.0627 35.0826C8.0627 32.845 8.97109 30.8289 10.4328 29.3672ZM20.8977 51.393L20.894 51.3913L16.0225 49.1027L11.4858 51.3396C11.3175 51.448 11.124 51.5011 10.9322 51.5011C10.3002 51.5011 9.80189 51.0027 9.80189 50.3708V40.0881C9.30949 39.4814 8.92599 38.8042 8.63429 38.0588L2.10886 38.0589C1.49831 38.0589 1 37.5605 1 36.95V2.13029C1 1.50234 1.49436 1 2.10886 1H54.338C54.97 1 55.4683 1.49836 55.4683 2.13029V36.95C55.4683 37.5646 54.9659 38.0589 54.338 38.0589H23.6611C23.3669 38.7898 22.9678 39.4811 22.4951 40.0855V50.3708C22.4951 50.5498 22.4367 50.7155 22.3916 50.8284L22.3877 50.8382L22.383 50.8476C22.1114 51.3911 21.455 51.6438 20.8977 51.393ZM48.5128 29.179C48.5128 29.7975 47.9849 30.2879 47.3825 30.2879H33.4505C32.8399 30.2879 32.3416 29.7895 32.3416 29.179C32.3416 28.5511 32.836 28.0487 33.4505 28.0487H47.3825C47.9891 28.0487 48.5128 28.5432 48.5128 29.179ZM48.5128 9.0859C48.5128 9.6964 47.993 10.2162 47.3825 10.2162H9.08529C8.44939 10.2162 7.95505 9.6924 7.95505 9.0859C7.95505 8.4793 8.44949 7.9556 9.08529 7.9556H47.3825C47.993 7.9556 48.5128 8.4754 48.5128 9.0859ZM48.5128 15.9122C48.5128 16.5482 47.989 17.0425 47.3825 17.0425H9.08529C8.45339 17.0425 7.95505 16.5442 7.95505 15.9122C7.95505 15.2977 8.45749 14.8034 9.08529 14.8034H47.3825C47.985 14.8034 48.5128 15.2938 48.5128 15.9122ZM16.1484 43.1678C14.6514 43.1678 13.2442 42.754 12.0407 42.0405V48.5737L15.5212 46.8626C15.5215 46.8624 15.5218 46.8623 15.5221 46.8621C15.8614 46.6926 16.2231 46.7267 16.5362 46.8825L20.2561 48.6249V42.0405C19.0527 42.754 17.6456 43.1678 16.1484 43.1678ZM16.1484 29.2353C14.5214 29.2353 13.0601 29.8942 12.0103 30.944C10.9605 31.9939 10.3019 33.4554 10.3019 35.0824C10.3019 36.6867 10.9599 38.1488 12.0116 39.2214C12.0118 39.2217 12.0121 39.222 12.0123 39.2222L12.0517 39.2616C12.052 39.2619 12.0523 39.2622 12.0526 39.2625C13.1025 40.291 14.5427 40.9288 16.1487 40.9288C17.753 40.9288 19.2151 40.2709 20.2877 39.2192C20.288 39.219 20.2883 39.2187 20.2885 39.2185L20.3279 39.1791C20.3282 39.1788 20.3285 39.1785 20.3288 39.1781C21.357 38.1286 21.9951 36.6672 21.9951 35.0821C21.9951 33.4556 21.3367 31.9947 20.2874 30.9449C19.2147 29.8932 17.7526 29.2353 16.1484 29.2353Z" fill="white" stroke="white" stroke-width="0.5"/>
</svg>
