<svg width="60" height="53" viewBox="0 0 60 53" fill="none" xmlns="http://www.w3.org/2000/svg">
<path d="M59.9725 17.5531C59.9725 15.2125 58.4366 13.2378 56.3155 12.6531C56.0231 5.63194 50.245 0 43.1509 0H16.8217C9.58108 0 3.65701 5.92407 3.65701 13.1646V30.2059C1.53587 30.8641 0 32.7658 0 35.1059C0 37.4464 1.53587 39.4211 3.65701 40.0059C3.94939 47.027 9.72752 52.6589 16.8217 52.6589H43.1509C50.3914 52.6589 56.3155 46.7349 56.3155 39.4943V22.4531C58.4366 21.7948 59.9725 19.8936 59.9725 17.5531ZM16.8214 2.9253H43.1506C48.6359 2.9253 53.097 7.2405 53.3899 12.6523C51.2688 13.3105 49.7329 15.2123 49.7329 17.5523C49.7329 18.2835 49.8794 18.9417 50.1717 19.6L42.9312 28.5233C41.9806 27.2069 40.4447 26.3292 38.7624 26.3292C36.7148 26.3292 34.9595 27.5727 34.0818 29.328L26.1831 25.3786C25.8172 23.0381 23.6961 21.2098 21.2096 21.2098C18.5767 21.2098 16.4555 23.1845 16.1632 25.671L9.43439 32.3997C8.77616 31.3756 7.75208 30.5715 6.58206 30.2056V13.1644C6.58206 7.5327 11.1897 2.9253 16.8214 2.9253ZM21.2096 28.5236C19.9661 28.5236 19.0155 27.573 19.0155 26.3295C19.0155 25.086 19.9661 24.1354 21.2096 24.1354C22.4531 24.1354 23.4037 25.086 23.4037 26.3295C23.4037 27.573 22.4531 28.5236 21.2096 28.5236ZM22.6725 31.2295C24.0619 30.7906 25.2325 29.7666 25.8907 28.4501L33.7894 32.3995C34.1553 34.3012 35.5447 35.8371 37.373 36.3489V49.7329H22.6725V31.2295ZM38.7622 33.643C37.5187 33.643 36.5681 32.6924 36.5681 31.4489C36.5681 30.2054 37.5187 29.2548 38.7622 29.2548C40.0057 29.2548 40.9563 30.2054 40.9563 31.4489C40.9563 32.6924 40.0057 33.643 38.7622 33.643ZM2.92556 35.1059C2.92556 33.8624 3.87617 32.9118 5.11966 32.9118C6.36315 32.9118 7.31376 33.8624 7.31376 35.1059C7.31376 36.3494 6.36315 37.3 5.11966 37.3C3.87617 37.3 2.92556 36.3494 2.92556 35.1059ZM6.58206 40.0059C8.48378 39.4206 9.87321 37.8118 10.1656 35.7641L16.8944 29.0354C17.5526 30.0594 18.5767 30.8636 19.7467 31.2295V49.7339H16.8214C11.3361 49.7339 6.87494 45.4181 6.58206 40.0059ZM43.1509 49.7334H40.2256V36.3494C42.2003 35.7641 43.5897 34.0823 43.8826 32.0341L52.1472 21.8683C52.513 22.0877 52.9518 22.3071 53.4636 22.4536L53.4631 39.4936C53.3902 45.1253 48.7826 49.7334 43.1509 49.7334ZM54.8526 19.7469C53.6091 19.7469 52.6585 18.7963 52.6585 17.5528C52.6585 16.3093 53.6091 15.3587 54.8526 15.3587C56.0961 15.3587 57.0467 16.3093 57.0467 17.5528C57.0467 18.7963 56.0961 19.7469 54.8526 19.7469Z" fill="white"/>
</svg>
