<svg width="51" height="53" viewBox="0 0 51 53" fill="none" xmlns="http://www.w3.org/2000/svg">
<path d="M29.6663 30.8635V34.5692H22.9328C23.8715 35.697 24.6119 36.9942 25.107 38.4072H44.8559C45.9158 38.4072 46.7749 37.548 46.7749 36.4882V10.9463C46.7749 9.88654 45.9158 9.02734 44.8559 9.02734H19.4111C18.3513 9.02734 17.4922 9.88654 17.4922 10.9463V30.7877C18.9045 31.2821 20.2024 32.0244 21.3301 32.9661V12.8662H29.6657V16.5719H34.6002V12.8662H42.9363V34.5702H34.6002V30.8644L29.6663 30.8635Z" fill="white"/>
<path d="M48.2667 40.5874H23.7039C22.917 36.3407 19.5754 32.9879 15.3402 32.1973V6.51134C15.3402 2.9206 12.4274 0 8.84652 0L1.91897 0.000610113C0.85913 0.000610113 0 0.85975 0 1.91958C0 2.97942 0.85913 3.83856 1.91897 3.83856H8.84652C10.3108 3.83856 11.5022 5.0379 11.5022 6.51194V32.1964C6.64602 33.1038 2.95505 37.3774 2.95505 42.5054C2.95505 48.2918 7.64972 52.9997 13.4212 52.9997C18.5374 52.9997 22.8013 49.2964 23.7039 44.4244H48.2683C49.3281 44.4244 50.1873 43.5652 50.1873 42.5054C50.1866 41.4456 49.3269 40.5864 48.267 40.5864L48.2667 40.5874ZM13.4198 46.9696C10.9746 46.9696 8.98472 44.9675 8.98472 42.5063C8.98472 40.0452 10.9746 38.0431 13.4198 38.0431C15.8649 38.0431 17.8549 40.0452 17.8549 42.5063C17.8549 44.9675 15.8649 46.9696 13.4198 46.9696Z" fill="white"/>
</svg>
