<svg width="60" height="46" viewBox="0 0 60 46" fill="none" xmlns="http://www.w3.org/2000/svg">
<path d="M58.9408 17.5973L30.9759 1.21659C30.5836 0.927801 30.0181 0.927801 29.6257 1.2166L1.6574 17.5993L1.64138 17.6087L1.62663 17.62C1.29727 17.8722 1 18.2474 1 18.7481C1 19.2156 1.26656 19.6939 1.6647 19.9011L6.0882 22.4804V37.1528C4.69306 37.6962 3.6171 39.0833 3.6171 40.7018C3.6171 42.79 5.34475 44.5618 7.40577 44.5618C9.46678 44.5618 11.1944 42.79 11.1944 40.7018C11.1944 39.0868 10.1869 37.6926 8.72333 37.1493V24.0177L14.5921 27.4493V40.6276V40.7761V40.7837C14.592 40.8517 14.5917 40.9897 14.6844 41.1278C14.6877 41.1387 14.691 41.1486 14.6943 41.1574C14.7073 41.193 14.7236 41.2257 14.7313 41.2415C14.7332 41.2452 14.7347 41.2484 14.7361 41.2513C14.7364 41.2519 14.7367 41.2525 14.737 41.2531C14.7379 41.2925 14.7442 41.3604 14.7766 41.4267C14.7982 41.4709 14.8249 41.5034 14.8421 41.5231C14.8546 41.5373 14.869 41.5524 14.8821 41.5659L14.8916 41.5756L14.8946 41.5788L14.983 41.6696L15.0341 41.7211C15.6364 42.4122 16.5261 42.9928 17.594 43.477C18.6682 43.9641 19.9403 44.3613 21.3208 44.6749C24.0817 45.3019 27.3027 45.6 30.3001 45.6C33.2975 45.6 36.5184 45.3018 39.2792 44.6747C40.6597 44.3611 41.9318 43.9638 43.006 43.4768C44.0739 42.9927 44.9636 42.412 45.566 41.7212L45.5802 41.7066C45.5836 41.705 45.5871 41.7033 45.5906 41.7015C45.6357 41.6785 45.689 41.6396 45.7303 41.5764C45.754 41.5401 45.7701 41.5014 45.7796 41.4621C45.7898 41.4491 45.8007 41.4338 45.8107 41.4166C45.8384 41.3692 45.8563 41.3153 45.8614 41.2567C45.8633 41.2527 45.8657 41.2479 45.8688 41.2415L45.8703 41.2385C45.8784 41.2218 45.8935 41.1909 45.9058 41.1574C45.9193 41.1205 45.9355 41.0652 45.9355 40.9986L45.9356 40.9754C45.9356 40.9744 45.9356 40.9734 45.9356 40.9724L46.008 40.8986V40.7761V40.6276V27.4494L58.9422 19.8969L58.9584 19.8874L58.9734 19.876C59.3025 19.6239 59.5997 19.2491 59.6 18.7488C59.6 18.7491 59.6 18.7485 59.6 18.7488L59.3 18.7479L58.9408 17.5973ZM17.2998 40.1259V29.0623L29.6403 36.2888L29.648 36.2933L29.6559 36.2973C29.7445 36.3423 29.8515 36.3859 29.9585 36.4187C30.0615 36.4503 30.1851 36.4784 30.3009 36.4784C30.4165 36.4784 30.54 36.4505 30.6432 36.4189C30.7503 36.3862 30.8576 36.3425 30.9467 36.2969L30.9542 36.293L30.9616 36.2888L43.3021 29.0623L43.3019 40.1259C42.9691 40.4181 42.4552 40.7272 41.7617 41.0287C41.0056 41.3574 40.053 41.6699 38.9256 41.9403C36.6709 42.4811 33.7328 42.8498 30.3008 42.8498C26.8688 42.8498 23.9307 42.4811 21.6761 41.9403C20.5486 41.6699 19.596 41.3574 18.8399 41.0287C18.1465 40.7272 17.6326 40.4181 17.2998 40.1259ZM30.1117 16.6714L30.1074 16.672L7.68127 20.2894L5.02141 18.7473L30.3004 3.9654L55.5813 18.7484L30.3006 33.5313L11.3308 22.47L30.4896 19.3418C31.2504 19.242 31.7064 18.5577 31.616 17.8217C31.5213 17.0464 30.7725 16.5747 30.1117 16.6714ZM7.40561 41.8115C6.77746 41.8115 6.25208 41.2841 6.25208 40.6282C6.25208 39.9723 6.77748 39.445 7.40561 39.445C8.03377 39.445 8.55914 39.9723 8.55914 40.6282C8.55914 41.3487 8.0437 41.8115 7.40561 41.8115Z" fill="white"/>
<path d="M59.6 18.7488C59.5997 19.2491 59.3025 19.6239 58.9734 19.876L58.9584 19.8874L58.9422 19.8969L46.008 27.4494V40.6276V40.7761V40.8986L45.9356 40.9724C45.9356 40.9734 45.9356 40.9744 45.9356 40.9754L45.9355 40.9986C45.9355 41.0652 45.9193 41.1205 45.9058 41.1574C45.8935 41.1909 45.8784 41.2218 45.8703 41.2385L45.8688 41.2415C45.8657 41.2479 45.8633 41.2527 45.8614 41.2567C45.8563 41.3153 45.8384 41.3692 45.8107 41.4166C45.8007 41.4338 45.7898 41.4491 45.7796 41.4621C45.7701 41.5014 45.754 41.5401 45.7303 41.5764C45.689 41.6396 45.6357 41.6785 45.5906 41.7015C45.5871 41.7033 45.5836 41.705 45.5802 41.7066L45.566 41.7212C44.9636 42.412 44.0739 42.9927 43.006 43.4768C41.9318 43.9638 40.6597 44.3611 39.2792 44.6747C36.5184 45.3018 33.2975 45.6 30.3001 45.6C27.3027 45.6 24.0817 45.3019 21.3208 44.6749C19.9403 44.3613 18.6682 43.9641 17.594 43.477C16.5261 42.9928 15.6364 42.4122 15.0341 41.7211L14.983 41.6696L14.8946 41.5788L14.8916 41.5756L14.8821 41.5659C14.869 41.5524 14.8546 41.5373 14.8421 41.5231C14.8249 41.5034 14.7982 41.4709 14.7766 41.4267C14.7442 41.3604 14.7379 41.2925 14.737 41.2531C14.7367 41.2525 14.7364 41.2519 14.7361 41.2513C14.7347 41.2484 14.7332 41.2452 14.7313 41.2415C14.7236 41.2257 14.7073 41.193 14.6943 41.1574C14.691 41.1486 14.6877 41.1387 14.6844 41.1278C14.5917 40.9897 14.592 40.8517 14.5921 40.7837V40.7761V40.6276V27.4493L8.72333 24.0177V37.1493C10.1869 37.6926 11.1944 39.0868 11.1944 40.7018C11.1944 42.79 9.46678 44.5618 7.40577 44.5618C5.34475 44.5618 3.6171 42.79 3.6171 40.7018C3.6171 39.0833 4.69306 37.6962 6.0882 37.1528V22.4804L1.6647 19.9011C1.26656 19.6939 1 19.2156 1 18.7481C1 18.2474 1.29727 17.8722 1.62663 17.62L1.64138 17.6087L1.6574 17.5993L29.6257 1.2166C30.0181 0.927801 30.5836 0.927801 30.9759 1.21659L58.9408 17.5973L59.3 18.7479L59.6 18.7488ZM59.6 18.7488C59.6 18.7485 59.6 18.7491 59.6 18.7488ZM17.2998 40.1259V29.0623L29.6403 36.2888L29.648 36.2933L29.6559 36.2973C29.7445 36.3423 29.8515 36.3859 29.9585 36.4187C30.0615 36.4503 30.1851 36.4784 30.3009 36.4784C30.4165 36.4784 30.54 36.4505 30.6432 36.4189C30.7503 36.3862 30.8576 36.3425 30.9467 36.2969L30.9542 36.293L30.9616 36.2888L43.3021 29.0623L43.3019 40.1259C42.9691 40.4181 42.4552 40.7272 41.7617 41.0287C41.0056 41.3574 40.053 41.6699 38.9256 41.9403C36.6709 42.4811 33.7328 42.8498 30.3008 42.8498C26.8688 42.8498 23.9307 42.4811 21.6761 41.9403C20.5486 41.6699 19.596 41.3574 18.8399 41.0287C18.1465 40.7272 17.6326 40.4181 17.2998 40.1259ZM30.1117 16.6714L30.1074 16.672L7.68127 20.2894L5.02141 18.7473L30.3004 3.9654L55.5813 18.7484L30.3006 33.5313L11.3308 22.47L30.4896 19.3418C31.2504 19.242 31.7064 18.5577 31.616 17.8217C31.5213 17.0464 30.7725 16.5747 30.1117 16.6714ZM7.40561 41.8115C6.77746 41.8115 6.25208 41.2841 6.25208 40.6282C6.25208 39.9723 6.77748 39.445 7.40561 39.445C8.03377 39.445 8.55914 39.9723 8.55914 40.6282C8.55914 41.3487 8.0437 41.8115 7.40561 41.8115Z" stroke="white" stroke-width="0.6"/>
</svg>
